<svg xmlns="http://www.w3.org/2000/svg" xmlns:xlink="http://www.w3.org/1999/xlink" width="40" zoomAndPan="magnify" viewBox="0 0 30 30.000001" height="40" preserveAspectRatio="xMidYMid meet" version="1.0"><defs><g/><clipPath id="7109ec9074"><rect x="0" width="28" y="0" height="23"/></clipPath></defs><g transform="matrix(1, 0, 0, 1, 1, 3)"><g clip-path="url(#7109ec9074)"><g fill="#000000" fill-opacity="1"><g transform="translate(6.01375, 19.27723)"><g><path d="M 2.871094 -1.027344 C 2.445312 -0.808594 2.042969 -0.746094 1.667969 -0.835938 C 1.320312 -0.917969 0.992188 -1.101562 0.675781 -1.382812 C 0.394531 -1.632812 0.101562 -1.925781 -0.207031 -2.265625 L -2.617188 -4.933594 C -2.859375 -5.203125 -2.992188 -5.507812 -3.011719 -5.847656 C -3.03125 -6.222656 -2.882812 -6.550781 -2.558594 -6.832031 C -2.277344 -7.09375 -1.960938 -7.21875 -1.621094 -7.214844 C -1.269531 -7.207031 -0.957031 -7.054688 -0.6875 -6.753906 L 1.527344 -4.328125 C 1.691406 -4.144531 1.828125 -4.027344 1.929688 -3.96875 C 1.921875 -3.976562 1.910156 -3.976562 1.898438 -3.972656 C 1.90625 -3.976562 1.925781 -3.988281 1.953125 -4.007812 C 1.960938 -4.019531 1.96875 -4.027344 1.976562 -4.035156 C 1.976562 -4.035156 1.976562 -4.039062 1.976562 -4.039062 C 1.976562 -4.035156 1.976562 -4.03125 1.972656 -4.03125 C 1.96875 -4.015625 1.96875 -4 1.972656 -3.992188 C 1.929688 -4.097656 1.824219 -4.242188 1.65625 -4.425781 L 0.0390625 -6.234375 C -0.238281 -6.546875 -0.386719 -6.875 -0.402344 -7.21875 C -0.417969 -7.59375 -0.257812 -7.925781 0.0820312 -8.207031 C 0.421875 -8.496094 0.769531 -8.601562 1.132812 -8.527344 C 1.457031 -8.460938 1.742188 -8.285156 1.988281 -8.003906 L 4.082031 -5.621094 C 4.257812 -5.425781 4.386719 -5.3125 4.46875 -5.28125 C 4.472656 -5.28125 4.472656 -5.28125 4.476562 -5.28125 C 4.476562 -5.28125 4.472656 -5.28125 4.472656 -5.28125 C 4.46875 -5.28125 4.464844 -5.28125 4.460938 -5.277344 L 4.460938 -5.28125 C 4.46875 -5.285156 4.476562 -5.289062 4.488281 -5.300781 C 4.5 -5.3125 4.507812 -5.320312 4.515625 -5.328125 C 4.511719 -5.324219 4.511719 -5.320312 4.507812 -5.3125 C 4.5 -5.285156 4.503906 -5.261719 4.511719 -5.246094 C 4.445312 -5.367188 4.328125 -5.542969 4.171875 -5.773438 C 3.914062 -6.148438 3.703125 -6.453125 3.535156 -6.691406 C 3.363281 -6.933594 3.226562 -7.136719 3.117188 -7.300781 C 3 -7.472656 2.902344 -7.636719 2.824219 -7.792969 C 2.621094 -8.191406 2.566406 -8.59375 2.65625 -9 C 2.757812 -9.433594 3.019531 -9.757812 3.445312 -9.976562 C 3.875 -10.195312 4.28125 -10.226562 4.660156 -10.066406 C 5.015625 -9.917969 5.304688 -9.628906 5.527344 -9.195312 C 5.65625 -8.9375 5.757812 -8.652344 5.828125 -8.335938 C 5.890625 -8.046875 5.949219 -7.773438 6 -7.519531 L 6.363281 -5.613281 C 6.449219 -5.171875 6.515625 -4.773438 6.566406 -4.410156 C 6.621094 -4 6.59375 -3.636719 6.488281 -3.320312 C 6.367188 -2.960938 6.101562 -2.675781 5.6875 -2.464844 C 5.199219 -2.214844 4.730469 -2.175781 4.28125 -2.34375 C 3.871094 -2.5 3.441406 -2.851562 2.996094 -3.402344 L 3.277344 -3.628906 L 3.441406 -3.308594 L 3.378906 -3.277344 L 3.214844 -3.597656 L 3.5625 -3.695312 C 3.75 -3.023438 3.808594 -2.488281 3.734375 -2.089844 C 3.648438 -1.632812 3.363281 -1.277344 2.871094 -1.027344 Z M 2.542969 -1.671875 C 2.820312 -1.8125 2.980469 -1.996094 3.023438 -2.222656 C 3.078125 -2.511719 3.023438 -2.9375 2.867188 -3.503906 L 2.789062 -3.789062 L 3.371094 -4.085938 L 3.554688 -3.859375 C 3.921875 -3.410156 4.25 -3.128906 4.535156 -3.019531 C 4.785156 -2.925781 5.058594 -2.957031 5.359375 -3.109375 C 5.597656 -3.230469 5.746094 -3.378906 5.804688 -3.546875 C 5.875 -3.761719 5.890625 -4.015625 5.847656 -4.316406 C 5.800781 -4.664062 5.738281 -5.050781 5.65625 -5.476562 L 5.289062 -7.375 C 5.238281 -7.628906 5.183594 -7.898438 5.121094 -8.179688 C 5.066406 -8.4375 4.984375 -8.664062 4.882812 -8.863281 C 4.742188 -9.140625 4.574219 -9.320312 4.378906 -9.402344 C 4.207031 -9.472656 4.007812 -9.449219 3.773438 -9.332031 C 3.546875 -9.21875 3.410156 -9.054688 3.363281 -8.839844 C 3.308594 -8.601562 3.34375 -8.363281 3.46875 -8.121094 C 3.535156 -7.988281 3.617188 -7.851562 3.714844 -7.699219 C 3.824219 -7.542969 3.957031 -7.34375 4.125 -7.109375 C 4.296875 -6.867188 4.507812 -6.5625 4.765625 -6.1875 C 4.9375 -5.9375 5.0625 -5.742188 5.140625 -5.601562 C 5.226562 -5.453125 5.25 -5.300781 5.210938 -5.140625 C 5.179688 -5.007812 5.101562 -4.882812 4.980469 -4.769531 C 4.871094 -4.667969 4.753906 -4.605469 4.625 -4.574219 C 4.488281 -4.542969 4.351562 -4.554688 4.214844 -4.605469 C 4.023438 -4.675781 3.796875 -4.859375 3.535156 -5.144531 L 1.441406 -7.53125 C 1.304688 -7.6875 1.152344 -7.785156 0.984375 -7.820312 C 0.855469 -7.847656 0.707031 -7.789062 0.542969 -7.652344 C 0.386719 -7.519531 0.3125 -7.386719 0.320312 -7.25 C 0.328125 -7.078125 0.414062 -6.902344 0.578125 -6.71875 L 2.191406 -4.914062 C 2.414062 -4.664062 2.566406 -4.449219 2.640625 -4.269531 C 2.703125 -4.117188 2.710938 -3.964844 2.664062 -3.816406 C 2.625 -3.6875 2.542969 -3.566406 2.417969 -3.457031 C 2.292969 -3.351562 2.164062 -3.285156 2.027344 -3.261719 C 1.871094 -3.234375 1.722656 -3.257812 1.578125 -3.339844 C 1.410156 -3.433594 1.214844 -3.597656 0.992188 -3.839844 L -1.222656 -6.269531 C -1.351562 -6.414062 -1.488281 -6.488281 -1.632812 -6.492188 C -1.78125 -6.492188 -1.933594 -6.425781 -2.082031 -6.289062 C -2.226562 -6.164062 -2.296875 -6.03125 -2.289062 -5.890625 C -2.277344 -5.71875 -2.210938 -5.5625 -2.082031 -5.417969 L 0.328125 -2.75 C 0.621094 -2.429688 0.894531 -2.152344 1.15625 -1.921875 C 1.378906 -1.722656 1.609375 -1.59375 1.835938 -1.539062 C 2.039062 -1.488281 2.273438 -1.535156 2.542969 -1.671875 Z M 2.542969 -1.671875 "/></g></g></g><g fill="#000000" fill-opacity="1"><g transform="translate(13.722018, 15.394351)"><g><path d="M 1.691406 -0.34375 C 1.164062 -0.113281 0.683594 -0.0820312 0.246094 -0.242188 C -0.195312 -0.410156 -0.53125 -0.75 -0.757812 -1.269531 C -0.992188 -1.808594 -0.976562 -2.292969 -0.707031 -2.714844 C -0.46875 -3.089844 -0.0976562 -3.390625 0.414062 -3.613281 C 0.691406 -3.734375 0.953125 -3.824219 1.199219 -3.886719 C 1.449219 -3.949219 1.6875 -3.984375 1.910156 -3.996094 L 1.925781 -3.636719 L 1.785156 -3.964844 L 1.808594 -3.976562 L 1.953125 -3.648438 L 1.621094 -3.503906 L 1.566406 -3.636719 C 1.550781 -3.664062 1.535156 -3.679688 1.511719 -3.6875 C 1.464844 -3.699219 1.40625 -3.691406 1.335938 -3.65625 L 1.320312 -3.648438 C 1.195312 -3.59375 1.089844 -3.539062 1.011719 -3.488281 C 0.925781 -3.433594 0.820312 -3.355469 0.695312 -3.253906 C 0.375 -3.007812 0.0585938 -2.882812 -0.261719 -2.871094 C -0.617188 -2.863281 -0.925781 -3.003906 -1.179688 -3.296875 L -1.183594 -3.300781 L -1.1875 -3.308594 C -1.4375 -3.609375 -1.539062 -3.921875 -1.496094 -4.242188 C -1.457031 -4.53125 -1.328125 -4.796875 -1.105469 -5.039062 L -0.835938 -4.796875 L -1.113281 -5.03125 C -0.953125 -5.21875 -0.761719 -5.398438 -0.542969 -5.570312 C -0.316406 -5.746094 -0.0585938 -5.898438 0.234375 -6.027344 C 1.101562 -6.402344 1.84375 -6.464844 2.460938 -6.207031 C 3.078125 -5.953125 3.597656 -5.34375 4.015625 -4.378906 L 4.613281 -3.007812 C 4.757812 -2.679688 4.773438 -2.359375 4.664062 -2.046875 C 4.550781 -1.722656 4.316406 -1.484375 3.960938 -1.332031 C 3.578125 -1.164062 3.234375 -1.152344 2.925781 -1.300781 C 2.636719 -1.4375 2.425781 -1.660156 2.289062 -1.972656 L 2.199219 -2.175781 L 2.53125 -2.320312 L 2.675781 -1.988281 L 2.5 -1.914062 L 2.355469 -2.246094 L 2.6875 -2.390625 C 2.769531 -2.199219 2.820312 -1.992188 2.835938 -1.765625 C 2.855469 -1.496094 2.777344 -1.238281 2.597656 -0.984375 C 2.433594 -0.746094 2.128906 -0.53125 1.691406 -0.34375 Z M 1.402344 -1.003906 C 1.71875 -1.140625 1.917969 -1.273438 2.007812 -1.398438 C 2.085938 -1.511719 2.121094 -1.617188 2.113281 -1.714844 C 2.105469 -1.855469 2.074219 -1.984375 2.023438 -2.101562 L 1.878906 -2.433594 L 2.71875 -2.796875 L 2.953125 -2.261719 C 3.015625 -2.117188 3.109375 -2.011719 3.238281 -1.953125 C 3.34375 -1.898438 3.492188 -1.914062 3.671875 -1.992188 C 3.835938 -2.0625 3.9375 -2.160156 3.980469 -2.285156 C 4.027344 -2.417969 4.019531 -2.5625 3.949219 -2.71875 L 3.355469 -4.089844 C 3.011719 -4.875 2.621094 -5.359375 2.1875 -5.539062 C 1.757812 -5.71875 1.203125 -5.65625 0.523438 -5.363281 C 0.285156 -5.257812 0.0820312 -5.140625 -0.0976562 -5 C -0.277344 -4.855469 -0.433594 -4.710938 -0.5625 -4.5625 L -0.566406 -4.554688 L -0.570312 -4.550781 C -0.691406 -4.421875 -0.761719 -4.285156 -0.777344 -4.144531 C -0.792969 -4.03125 -0.742188 -3.90625 -0.628906 -3.761719 L -0.910156 -3.535156 L -0.636719 -3.773438 C -0.53125 -3.652344 -0.414062 -3.589844 -0.285156 -3.59375 C -0.121094 -3.601562 0.0546875 -3.675781 0.242188 -3.816406 C 0.386719 -3.933594 0.511719 -4.023438 0.617188 -4.09375 C 0.726562 -4.167969 0.867188 -4.242188 1.035156 -4.3125 L 1.179688 -3.980469 L 1.019531 -4.308594 C 1.25 -4.417969 1.476562 -4.445312 1.699219 -4.386719 C 1.945312 -4.320312 2.121094 -4.164062 2.226562 -3.921875 L 2.429688 -3.460938 L 2.011719 -3.277344 L 1.945312 -3.273438 C 1.769531 -3.265625 1.582031 -3.234375 1.375 -3.183594 C 1.167969 -3.132812 0.941406 -3.054688 0.703125 -2.949219 C 0.328125 -2.785156 0.0625 -2.578125 -0.0976562 -2.328125 C -0.230469 -2.121094 -0.226562 -1.863281 -0.09375 -1.554688 C 0.0507812 -1.226562 0.246094 -1.015625 0.496094 -0.921875 C 0.753906 -0.824219 1.054688 -0.855469 1.402344 -1.003906 Z M 1.125 -2.792969 L 1.121094 -2.792969 C 1.117188 -2.796875 1.109375 -2.804688 1.101562 -2.8125 C 1.082031 -2.828125 1.054688 -2.839844 1.03125 -2.84375 C 1.023438 -2.84375 1.019531 -2.84375 1.015625 -2.84375 C 1.015625 -2.84375 1.019531 -2.84375 1.023438 -2.84375 C 1.039062 -2.847656 1.0625 -2.851562 1.089844 -2.859375 C 1.160156 -2.878906 1.25 -2.914062 1.359375 -2.960938 C 1.457031 -3.003906 1.535156 -3.042969 1.59375 -3.078125 C 1.636719 -3.105469 1.664062 -3.125 1.671875 -3.136719 C 1.660156 -3.121094 1.652344 -3.101562 1.648438 -3.078125 C 1.648438 -3.054688 1.648438 -3.035156 1.652344 -3.023438 C 1.660156 -3.003906 1.679688 -2.984375 1.703125 -2.96875 C 1.726562 -2.953125 1.746094 -2.945312 1.765625 -2.945312 C 1.710938 -2.945312 1.59375 -2.90625 1.417969 -2.828125 C 1.304688 -2.78125 1.21875 -2.738281 1.15625 -2.703125 C 1.128906 -2.6875 1.109375 -2.671875 1.09375 -2.664062 C 1.09375 -2.660156 1.089844 -2.65625 1.085938 -2.65625 C 1.089844 -2.660156 1.09375 -2.660156 1.097656 -2.667969 C 1.113281 -2.6875 1.125 -2.714844 1.125 -2.746094 C 1.128906 -2.765625 1.128906 -2.78125 1.125 -2.792969 Z M 0.460938 -2.503906 C 0.414062 -2.605469 0.398438 -2.710938 0.40625 -2.8125 C 0.417969 -2.925781 0.460938 -3.03125 0.535156 -3.121094 C 0.628906 -3.238281 0.828125 -3.359375 1.128906 -3.492188 C 1.398438 -3.609375 1.609375 -3.667969 1.765625 -3.667969 C 1.890625 -3.667969 2 -3.636719 2.09375 -3.574219 C 2.191406 -3.511719 2.265625 -3.425781 2.316406 -3.308594 C 2.367188 -3.195312 2.382812 -3.082031 2.363281 -2.96875 C 2.347656 -2.855469 2.296875 -2.75 2.214844 -2.65625 C 2.109375 -2.539062 1.921875 -2.417969 1.648438 -2.300781 C 1.34375 -2.167969 1.113281 -2.109375 0.957031 -2.125 C 0.839844 -2.136719 0.738281 -2.175781 0.648438 -2.25 C 0.570312 -2.3125 0.507812 -2.398438 0.460938 -2.503906 Z M 0.460938 -2.503906 "/></g></g></g><g fill="#000000" fill-opacity="1"><g transform="translate(18.391305, 13.383267)"><g><path d="M -2.402344 -5.671875 C -2.542969 -6.019531 -2.542969 -6.351562 -2.410156 -6.664062 C -2.273438 -6.976562 -2.019531 -7.207031 -1.648438 -7.355469 C -1.253906 -7.511719 -0.902344 -7.519531 -0.601562 -7.378906 C -0.304688 -7.242188 -0.0898438 -7 0.046875 -6.65625 C 0.183594 -6.3125 0.1875 -5.992188 0.0664062 -5.695312 C -0.0585938 -5.386719 -0.316406 -5.15625 -0.710938 -5 C -1.097656 -4.847656 -1.441406 -4.835938 -1.746094 -4.96875 C -2.050781 -5.097656 -2.269531 -5.332031 -2.402344 -5.671875 Z M -1.730469 -5.9375 C -1.671875 -5.785156 -1.582031 -5.683594 -1.460938 -5.632812 C -1.339844 -5.578125 -1.179688 -5.59375 -0.976562 -5.671875 C -0.773438 -5.753906 -0.648438 -5.851562 -0.601562 -5.964844 C -0.554688 -6.085938 -0.5625 -6.226562 -0.625 -6.386719 C -0.691406 -6.554688 -0.785156 -6.667969 -0.90625 -6.726562 C -1.019531 -6.777344 -1.179688 -6.765625 -1.378906 -6.683594 C -1.566406 -6.609375 -1.691406 -6.507812 -1.746094 -6.378906 C -1.800781 -6.25 -1.796875 -6.101562 -1.730469 -5.9375 Z M 1.234375 -0.101562 C 0.855469 0.0507812 0.515625 0.0507812 0.21875 -0.0976562 C -0.0625 -0.242188 -0.265625 -0.46875 -0.390625 -0.789062 L -1.609375 -3.851562 C -1.746094 -4.195312 -1.757812 -4.511719 -1.644531 -4.804688 C -1.53125 -5.105469 -1.28125 -5.332031 -0.902344 -5.484375 C -0.527344 -5.632812 -0.191406 -5.640625 0.101562 -5.503906 C 0.390625 -5.367188 0.597656 -5.136719 0.730469 -4.800781 L 1.957031 -1.71875 C 2.082031 -1.398438 2.085938 -1.085938 1.96875 -0.785156 C 1.84375 -0.472656 1.601562 -0.246094 1.234375 -0.101562 Z M 0.96875 -0.773438 C 1.140625 -0.84375 1.25 -0.933594 1.296875 -1.050781 C 1.34375 -1.175781 1.339844 -1.308594 1.285156 -1.453125 L 0.0585938 -4.535156 C -0.00390625 -4.691406 -0.0898438 -4.796875 -0.203125 -4.847656 C -0.308594 -4.898438 -0.453125 -4.886719 -0.636719 -4.8125 C -0.820312 -4.742188 -0.929688 -4.652344 -0.96875 -4.546875 C -1.015625 -4.429688 -1.003906 -4.289062 -0.9375 -4.117188 L 0.28125 -1.054688 C 0.339844 -0.90625 0.425781 -0.804688 0.546875 -0.742188 C 0.648438 -0.691406 0.789062 -0.703125 0.96875 -0.773438 Z M 0.96875 -0.773438 "/></g></g></g><g fill="#000000" fill-opacity="1"><g transform="translate(20.371919, 12.570491)"><g><path d="M 3.003906 -0.671875 C 2.625 -0.535156 2.25 -0.496094 1.878906 -0.558594 C 1.5 -0.625 1.164062 -0.785156 0.871094 -1.050781 C 0.582031 -1.304688 0.363281 -1.644531 0.210938 -2.066406 L -0.367188 -3.660156 L -0.0273438 -3.78125 L 0.140625 -3.460938 L -0.175781 -3.296875 C -0.320312 -3.222656 -0.46875 -3.1875 -0.621094 -3.191406 C -0.769531 -3.195312 -0.914062 -3.234375 -1.0625 -3.3125 C -1.335938 -3.457031 -1.535156 -3.6875 -1.648438 -4.003906 C -1.765625 -4.324219 -1.761719 -4.628906 -1.636719 -4.914062 C -1.574219 -5.0625 -1.484375 -5.183594 -1.375 -5.28125 C -1.257812 -5.382812 -1.125 -5.449219 -0.96875 -5.484375 L -0.617188 -5.558594 L -0.539062 -5.207031 L -0.878906 -5.078125 L -1.109375 -5.691406 C -1.242188 -6.023438 -1.238281 -6.335938 -1.097656 -6.625 C -0.960938 -6.910156 -0.707031 -7.117188 -0.335938 -7.25 C 0.03125 -7.382812 0.359375 -7.386719 0.648438 -7.261719 C 0.953125 -7.132812 1.160156 -6.890625 1.269531 -6.535156 L 1.46875 -5.921875 L 1.128906 -5.808594 L 0.960938 -6.128906 L 1.417969 -6.367188 C 1.828125 -6.585938 2.203125 -6.621094 2.542969 -6.464844 C 2.863281 -6.320312 3.082031 -6.082031 3.199219 -5.757812 C 3.316406 -5.433594 3.300781 -5.117188 3.152344 -4.796875 C 2.996094 -4.464844 2.695312 -4.25 2.25 -4.152344 L 1.722656 -4.03125 L 1.640625 -4.386719 L 1.980469 -4.507812 L 2.46875 -3.160156 C 2.46875 -3.160156 2.46875 -3.164062 2.464844 -3.167969 L 2.46875 -3.167969 C 2.445312 -3.179688 2.414062 -3.183594 2.378906 -3.183594 C 2.34375 -3.179688 2.316406 -3.171875 2.292969 -3.152344 L 2.296875 -3.15625 L 2.304688 -3.160156 C 2.34375 -3.191406 2.386719 -3.242188 2.433594 -3.3125 C 2.546875 -3.5 2.722656 -3.632812 2.957031 -3.71875 C 3.308594 -3.84375 3.625 -3.8125 3.914062 -3.625 C 4.171875 -3.457031 4.355469 -3.210938 4.472656 -2.890625 C 4.570312 -2.617188 4.570312 -2.332031 4.476562 -2.027344 C 4.386719 -1.738281 4.214844 -1.476562 3.960938 -1.234375 C 3.714844 -1 3.398438 -0.8125 3.003906 -0.671875 Z M 2.757812 -1.351562 C 3.054688 -1.460938 3.289062 -1.59375 3.460938 -1.757812 C 3.625 -1.914062 3.734375 -2.074219 3.785156 -2.242188 C 3.832031 -2.394531 3.835938 -2.527344 3.792969 -2.644531 C 3.730469 -2.816406 3.640625 -2.941406 3.519531 -3.019531 C 3.433594 -3.078125 3.328125 -3.082031 3.203125 -3.039062 C 3.125 -3.011719 3.074219 -2.976562 3.046875 -2.929688 C 2.949219 -2.773438 2.839844 -2.652344 2.714844 -2.566406 L 2.507812 -2.863281 L 2.726562 -2.578125 C 2.632812 -2.507812 2.53125 -2.46875 2.421875 -2.460938 C 2.316406 -2.457031 2.210938 -2.480469 2.109375 -2.539062 C 1.957031 -2.625 1.847656 -2.75 1.789062 -2.914062 L 1.164062 -4.648438 L 2.097656 -4.859375 C 2.308594 -4.90625 2.441406 -4.988281 2.5 -5.105469 C 2.5625 -5.242188 2.570312 -5.378906 2.519531 -5.511719 C 2.472656 -5.648438 2.378906 -5.746094 2.242188 -5.808594 C 2.121094 -5.863281 1.957031 -5.835938 1.75 -5.726562 L 0.917969 -5.292969 L 0.578125 -6.324219 C 0.535156 -6.464844 0.460938 -6.554688 0.363281 -6.597656 C 0.246094 -6.648438 0.0976562 -6.640625 -0.0898438 -6.570312 C -0.277344 -6.503906 -0.394531 -6.417969 -0.445312 -6.3125 C -0.496094 -6.210938 -0.492188 -6.089844 -0.433594 -5.945312 L -0.0546875 -4.941406 L -0.816406 -4.777344 C -0.882812 -4.761719 -0.9375 -4.710938 -0.972656 -4.625 C -1.019531 -4.515625 -1.019531 -4.390625 -0.96875 -4.25 C -0.917969 -4.109375 -0.835938 -4.011719 -0.726562 -3.953125 C -0.679688 -3.929688 -0.636719 -3.914062 -0.601562 -3.914062 C -0.570312 -3.914062 -0.542969 -3.921875 -0.511719 -3.9375 L 0.171875 -4.292969 L 0.890625 -2.308594 C 1 -2.003906 1.15625 -1.765625 1.351562 -1.589844 C 1.542969 -1.417969 1.757812 -1.3125 2 -1.273438 C 2.246094 -1.230469 2.5 -1.257812 2.757812 -1.351562 Z M 2.757812 -1.351562 "/></g></g></g><g fill="#ffffff" fill-opacity="1"><g transform="translate(6.01375, 19.27723)"><g><path d="M 2.71875 -1.34375 C 2.363281 -1.164062 2.039062 -1.109375 1.75 -1.171875 C 1.46875 -1.242188 1.191406 -1.398438 0.921875 -1.640625 C 0.648438 -1.890625 0.367188 -2.179688 0.078125 -2.515625 L -2.34375 -5.171875 C -2.53125 -5.378906 -2.628906 -5.613281 -2.640625 -5.875 C -2.648438 -6.132812 -2.539062 -6.367188 -2.3125 -6.578125 C -2.09375 -6.765625 -1.859375 -6.851562 -1.609375 -6.84375 C -1.367188 -6.84375 -1.148438 -6.726562 -0.953125 -6.5 L 1.265625 -4.09375 C 1.453125 -3.875 1.613281 -3.726562 1.75 -3.65625 C 1.882812 -3.582031 2.03125 -3.609375 2.1875 -3.734375 C 2.332031 -3.859375 2.375 -3.988281 2.3125 -4.125 C 2.25 -4.269531 2.125 -4.453125 1.9375 -4.671875 L 0.296875 -6.484375 C 0.078125 -6.722656 -0.0351562 -6.96875 -0.046875 -7.21875 C -0.0546875 -7.476562 0.0664062 -7.71875 0.328125 -7.9375 C 0.566406 -8.144531 0.804688 -8.222656 1.046875 -8.171875 C 1.296875 -8.117188 1.519531 -7.984375 1.71875 -7.765625 L 3.8125 -5.390625 C 4.03125 -5.148438 4.207031 -5 4.34375 -4.9375 C 4.476562 -4.882812 4.609375 -4.914062 4.734375 -5.03125 C 4.878906 -5.15625 4.914062 -5.285156 4.84375 -5.421875 C 4.769531 -5.554688 4.644531 -5.742188 4.46875 -5.984375 C 4.21875 -6.347656 4.003906 -6.648438 3.828125 -6.890625 C 3.660156 -7.140625 3.519531 -7.34375 3.40625 -7.5 C 3.300781 -7.664062 3.210938 -7.816406 3.140625 -7.953125 C 2.984375 -8.285156 2.941406 -8.609375 3.015625 -8.921875 C 3.097656 -9.234375 3.300781 -9.472656 3.625 -9.640625 C 3.957031 -9.816406 4.257812 -9.847656 4.53125 -9.734375 C 4.800781 -9.628906 5.03125 -9.394531 5.21875 -9.03125 C 5.332031 -8.8125 5.414062 -8.554688 5.46875 -8.265625 C 5.53125 -7.972656 5.59375 -7.703125 5.65625 -7.453125 L 6.015625 -5.546875 C 6.085938 -5.117188 6.148438 -4.726562 6.203125 -4.375 C 6.265625 -4.019531 6.25 -3.707031 6.15625 -3.4375 C 6.0625 -3.164062 5.851562 -2.945312 5.53125 -2.78125 C 5.132812 -2.582031 4.757812 -2.546875 4.40625 -2.671875 C 4.0625 -2.804688 3.679688 -3.128906 3.265625 -3.640625 L 3.21875 -3.609375 C 3.394531 -2.972656 3.445312 -2.484375 3.375 -2.140625 C 3.3125 -1.804688 3.09375 -1.539062 2.71875 -1.34375 Z M 2.71875 -1.34375 "/></g></g></g><g fill="#ffffff" fill-opacity="1"><g transform="translate(13.722018, 15.394351)"><g><path d="M 1.546875 -0.671875 C 1.109375 -0.484375 0.710938 -0.453125 0.359375 -0.578125 C 0.015625 -0.703125 -0.25 -0.976562 -0.4375 -1.40625 C -0.613281 -1.832031 -0.601562 -2.203125 -0.40625 -2.515625 C -0.207031 -2.828125 0.113281 -3.082031 0.5625 -3.28125 C 0.820312 -3.382812 1.0625 -3.46875 1.28125 -3.53125 C 1.507812 -3.59375 1.726562 -3.625 1.9375 -3.625 L 1.96875 -3.640625 L 1.90625 -3.78125 C 1.84375 -3.914062 1.742188 -4 1.609375 -4.03125 C 1.472656 -4.070312 1.332031 -4.054688 1.1875 -3.984375 C 1.03125 -3.921875 0.90625 -3.851562 0.8125 -3.78125 C 0.71875 -3.71875 0.601562 -3.640625 0.46875 -3.546875 C 0.21875 -3.335938 -0.0234375 -3.226562 -0.265625 -3.21875 C -0.515625 -3.21875 -0.726562 -3.328125 -0.90625 -3.546875 C -1.082031 -3.765625 -1.15625 -3.976562 -1.125 -4.1875 C -1.101562 -4.40625 -1.007812 -4.609375 -0.84375 -4.796875 C -0.695312 -4.960938 -0.523438 -5.125 -0.328125 -5.28125 C -0.128906 -5.445312 0.101562 -5.585938 0.375 -5.703125 C 1.144531 -6.035156 1.796875 -6.09375 2.328125 -5.875 C 2.859375 -5.664062 3.316406 -5.117188 3.703125 -4.234375 L 4.28125 -2.875 C 4.394531 -2.625 4.410156 -2.382812 4.328125 -2.15625 C 4.253906 -1.9375 4.085938 -1.773438 3.828125 -1.671875 C 3.535156 -1.546875 3.285156 -1.53125 3.078125 -1.625 C 2.878906 -1.71875 2.726562 -1.878906 2.625 -2.109375 L 2.53125 -2.328125 L 2.359375 -2.25 C 2.429688 -2.09375 2.472656 -1.921875 2.484375 -1.734375 C 2.492188 -1.546875 2.429688 -1.363281 2.296875 -1.1875 C 2.171875 -1.007812 1.921875 -0.835938 1.546875 -0.671875 Z M 0.796875 -2.65625 C 0.835938 -2.5625 0.90625 -2.503906 1 -2.484375 C 1.09375 -2.472656 1.257812 -2.519531 1.5 -2.625 C 1.726562 -2.71875 1.875 -2.804688 1.9375 -2.890625 C 2.007812 -2.984375 2.023438 -3.078125 1.984375 -3.171875 C 1.941406 -3.265625 1.867188 -3.304688 1.765625 -3.296875 C 1.660156 -3.296875 1.492188 -3.25 1.265625 -3.15625 C 1.023438 -3.050781 0.875 -2.960938 0.8125 -2.890625 C 0.757812 -2.828125 0.753906 -2.75 0.796875 -2.65625 Z M 0.796875 -2.65625 "/></g></g></g><g fill="#ffffff" fill-opacity="1"><g transform="translate(18.391305, 13.383267)"><g><path d="M -2.0625 -5.796875 C -2.164062 -6.054688 -2.164062 -6.296875 -2.0625 -6.515625 C -1.96875 -6.734375 -1.78125 -6.898438 -1.5 -7.015625 C -1.207031 -7.140625 -0.957031 -7.148438 -0.75 -7.046875 C -0.539062 -6.953125 -0.390625 -6.78125 -0.296875 -6.53125 C -0.191406 -6.28125 -0.179688 -6.050781 -0.265625 -5.84375 C -0.359375 -5.632812 -0.550781 -5.46875 -0.84375 -5.34375 C -1.132812 -5.226562 -1.382812 -5.210938 -1.59375 -5.296875 C -1.8125 -5.390625 -1.96875 -5.554688 -2.0625 -5.796875 Z M 1.109375 -0.4375 C 0.828125 -0.320312 0.585938 -0.316406 0.390625 -0.421875 C 0.191406 -0.523438 0.046875 -0.691406 -0.046875 -0.921875 L -1.265625 -3.984375 C -1.367188 -4.242188 -1.378906 -4.472656 -1.296875 -4.671875 C -1.222656 -4.878906 -1.046875 -5.039062 -0.765625 -5.15625 C -0.484375 -5.269531 -0.242188 -5.273438 -0.046875 -5.171875 C 0.148438 -5.078125 0.300781 -4.90625 0.40625 -4.65625 L 1.625 -1.578125 C 1.71875 -1.347656 1.722656 -1.125 1.640625 -0.90625 C 1.554688 -0.695312 1.378906 -0.539062 1.109375 -0.4375 Z M 1.109375 -0.4375 "/></g></g></g><g fill="#ffffff" fill-opacity="1"><g transform="translate(20.371919, 12.570491)"><g><path d="M 2.890625 -1.015625 C 2.566406 -0.890625 2.242188 -0.851562 1.921875 -0.90625 C 1.609375 -0.957031 1.332031 -1.09375 1.09375 -1.3125 C 0.863281 -1.539062 0.679688 -1.835938 0.546875 -2.203125 L -0.03125 -3.78125 L -0.34375 -3.625 C -0.519531 -3.53125 -0.703125 -3.535156 -0.890625 -3.640625 C -1.085938 -3.742188 -1.226562 -3.90625 -1.3125 -4.125 C -1.394531 -4.351562 -1.394531 -4.566406 -1.3125 -4.765625 C -1.226562 -4.960938 -1.085938 -5.082031 -0.890625 -5.125 L -0.546875 -5.21875 L -0.78125 -5.8125 C -0.863281 -6.0625 -0.859375 -6.28125 -0.765625 -6.46875 C -0.671875 -6.664062 -0.484375 -6.816406 -0.203125 -6.921875 C 0.0664062 -7.015625 0.300781 -7.019531 0.5 -6.9375 C 0.707031 -6.851562 0.847656 -6.6875 0.921875 -6.4375 L 1.109375 -5.8125 L 1.578125 -6.03125 C 1.878906 -6.195312 2.144531 -6.226562 2.375 -6.125 C 2.613281 -6.019531 2.773438 -5.851562 2.859375 -5.625 C 2.941406 -5.40625 2.925781 -5.179688 2.8125 -4.953125 C 2.707031 -4.734375 2.492188 -4.585938 2.171875 -4.515625 L 1.625 -4.375 L 2.125 -3.03125 C 2.144531 -2.945312 2.195312 -2.882812 2.28125 -2.84375 C 2.363281 -2.800781 2.4375 -2.804688 2.5 -2.859375 C 2.59375 -2.921875 2.675781 -3.007812 2.75 -3.125 C 2.820312 -3.238281 2.9375 -3.320312 3.09375 -3.375 C 3.320312 -3.457031 3.53125 -3.4375 3.71875 -3.3125 C 3.90625 -3.195312 4.046875 -3.015625 4.140625 -2.765625 C 4.210938 -2.578125 4.207031 -2.367188 4.125 -2.140625 C 4.050781 -1.910156 3.910156 -1.695312 3.703125 -1.5 C 3.503906 -1.300781 3.234375 -1.140625 2.890625 -1.015625 Z M 2.890625 -1.015625 "/></g></g></g></g></g></svg>